<svg xmlns="http://www.w3.org/2000/svg" xmlns:xlink="http://www.w3.org/1999/xlink" version="1.1" x="0px" y="0px" viewBox="0 0 100 125" enable-background="new 0 0 100 100" xml:space="preserve"><path d="M81.006,62.154c-1.613,2.262-3.228,4.519-4.842,6.779c-3.626,5.075-7.251,10.147-10.88,15.223  c-0.83,1.165-2.112,1.874-3.448,1.757c-0.987,0.054-1.982-0.26-2.659-1.031c-3.273-3.746-6.549-7.49-9.823-11.234  c-1.287-1.472-1.452-3.623,0-5.075c1.314-1.313,3.787-1.474,5.074,0c2.425,2.77,4.849,5.541,7.27,8.311  c0.746-1.042,1.491-2.086,2.234-3.129c3.626-5.072,7.252-10.146,10.877-15.222c1.136-1.588,3.106-2.344,4.911-1.288  C81.292,58.167,82.148,60.561,81.006,62.154z M32.61,52.77c-0.47,0-0.941,0-1.412,0c-2.445,0-4.485-2.041-4.485-4.486  c0-2.444,2.041-4.484,4.485-4.484c0.472,0,0.942,0,1.412,0c2.445,0,4.485,2.04,4.485,4.484S35.055,52.77,32.61,52.77z M32.61,24.574  c-0.47,0-0.941,0-1.412,0c-2.445,0-4.485-2.04-4.485-4.485c0-2.446,2.041-4.485,4.485-4.485c0.472,0,0.942,0,1.412,0  c2.445,0,4.485,2.041,4.485,4.485S35.055,24.574,32.61,24.574z M32.61,38.672c-0.47,0-0.941,0-1.412,0  c-2.445,0-4.485-2.04-4.485-4.485s2.041-4.486,4.485-4.486c0.472,0,0.942,0,1.412,0c2.445,0,4.485,2.041,4.485,4.486  S35.055,38.672,32.61,38.672z M56.539,50.976c-4.531,0-9.063,0-13.593,0c-1.468,0-2.692-1.223-2.692-2.692  c0-1.465,1.224-2.691,2.692-2.691c4.53,0,9.062,0,13.593,0c1.469,0,2.69,1.226,2.69,2.691  C59.231,49.753,58.008,50.976,56.539,50.976z M56.539,22.78c-4.531,0-9.063,0-13.593,0c-1.468,0-2.692-1.224-2.692-2.691  s1.224-2.692,2.692-2.692c4.53,0,9.062,0,13.593,0c1.469,0,2.69,1.225,2.69,2.692S58.008,22.78,56.539,22.78z M56.539,36.878  c-4.531,0-9.063,0-13.593,0c-1.468,0-2.692-1.225-2.692-2.691c0-1.467,1.224-2.692,2.692-2.692c4.53,0,9.062,0,13.593,0  c1.469,0,2.69,1.225,2.69,2.692C59.231,35.652,58.008,36.878,56.539,36.878z M66.232,59.373c-1.468,0-2.691-1.224-2.691-2.69  c0-3.591,0-7.185,0-10.775c0-8.173,0-16.345,0-24.517c0-3.668,0-7.337,0-11.006c-1.961,0-3.918,0-5.88,0c-8.088,0-16.179,0-24.268,0  c-3.806,0-7.612,0-11.418,0c0,1.602,0,3.203,0,4.806c0,7.501,0,15.003,0,22.506c0,7.961,0,15.924,0,23.887c0,2.807,0,5.612,0,8.417  c0.242,0,0.482,0,0.724,0c6.403,0,12.806,0,19.208,0c1.467,0,2.691,1.224,2.691,2.69s-1.224,2.69-2.691,2.69  c-1.139,0-2.277,0-3.415,0c-6.404,0-12.806,0-19.209,0c-1.467,0-2.692-1.224-2.692-2.69c0-2.499,0-4.998,0-7.498  c0-7.499,0-15.004,0-22.505c0-7.963,0-15.924,0-23.886c0-3.705,0-7.406,0-11.109c0-1.469,1.224-2.692,2.69-2.692  c2.859,0,5.714,0,8.572,0c8.09,0,16.178,0,24.268,0c4.703,0,9.406,0,14.107,0c1.471,0,2.693,1.225,2.693,2.692  c0,3.591,0,7.184,0,10.776c0,8.172,0,16.343,0,24.516c0,4.564,0,9.13,0,13.697C68.924,58.149,67.701,59.373,66.232,59.373z"/><text x="0" y="115" fill="#000000" font-size="5px" font-weight="bold" font-family="'Helvetica Neue', Helvetica, Arial-Unicode, Arial, Sans-serif">Created by Nikolay Necheuhin</text><text x="0" y="120" fill="#000000" font-size="5px" font-weight="bold" font-family="'Helvetica Neue', Helvetica, Arial-Unicode, Arial, Sans-serif">from the Noun Project</text></svg>